<svg id="booking" enable-background="new 0 0 300 300" height="512" viewBox="0 0 300 300" width="512" xmlns="http://www.w3.org/2000/svg"><g><circle cx="140" cy="131.265" fill="#ffec95" r="86"/><g><path d="m30 165.265h240v16h-240z" fill="#bf7e68"/><path d="m270 185.265h-240c-2.211 0-4-1.791-4-4v-16c0-2.209 1.789-4 4-4h240c2.211 0 4 1.791 4 4v16c0 2.209-1.789 4-4 4zm-236-8h232v-8h-232z" fill="#4c241d"/></g><g><path d="m246 181.265h12v84h-12z" fill="#bf7e68"/><path d="m258 269.265h-12c-2.211 0-4-1.791-4-4v-84c0-2.209 1.789-4 4-4h12c2.211 0 4 1.791 4 4v84c0 2.209-1.789 4-4 4zm-8-8h4v-76h-4z" fill="#4c241d"/></g><g><path d="m42 181.265h12v84h-12z" fill="#bf7e68"/><path d="m54 269.265h-12c-2.211 0-4-1.791-4-4v-84c0-2.209 1.789-4 4-4h12c2.211 0 4 1.791 4 4v84c0 2.209-1.789 4-4 4zm-8-8h4v-76h-4z" fill="#4c241d"/></g><g><path d="m42 93.265h84v60h-84z" fill="#9dc1e4"/><path d="m126 157.265h-84c-2.211 0-4-1.791-4-4v-60c0-2.209 1.789-4 4-4h84c2.211 0 4 1.791 4 4v60c0 2.209-1.789 4-4 4zm-80-8h76v-52h-76z" fill="#4c241d"/></g><g fill="#4c241d"><path d="m54 209.265h192v8h-192z"/><path d="m95.656 66.921c-1.023 0-2.047-.391-2.828-1.172l-11.312-11.312c-1.562-1.562-1.562-4.094 0-5.656s4.094-1.562 5.656 0l11.312 11.312c1.562 1.562 1.562 4.094 0 5.656-.781.781-1.804 1.172-2.828 1.172z"/><path d="m84.344 66.921c-1.023 0-2.047-.391-2.828-1.172-1.562-1.562-1.562-4.094 0-5.656l11.312-11.313c1.562-1.562 4.094-1.562 5.656 0s1.562 4.094 0 5.656l-11.312 11.313c-.781.781-1.805 1.172-2.828 1.172z"/><circle cx="116" cy="35.265" r="4.529"/></g><g><path d="m110 109.265v14c0 10.814 6.606 20.082 16 24.001v13.999h20v-13.999c9.394-3.919 16-13.187 16-24.001v-14z" fill="#e7d1c4"/><path d="m146 165.265h-20c-2.211 0-4-1.791-4-4v-11.465c-9.801-5.162-16-15.303-16-26.535v-14c0-2.209 1.789-4 4-4h52c2.211 0 4 1.791 4 4v14c0 11.232-6.199 21.373-16 26.535v11.465c0 2.209-1.789 4-4 4zm-16-8h12v-10c0-1.615.969-3.07 2.461-3.691 8.223-3.43 13.539-11.402 13.539-20.309v-10h-44v10c0 8.906 5.316 16.879 13.539 20.309 1.492.621 2.461 2.076 2.461 3.691z" fill="#4c241d"/></g><g><path d="m178 209.265v-23.9c0-13.31-10.79-24.1-24.1-24.1h-35.8c-13.31 0-24.1 10.79-24.1 24.1v23.9" fill="#a9ba5a"/><path d="m178 213.265c-2.211 0-4-1.791-4-4v-23.9c0-11.082-9.016-20.1-20.102-20.1h-35.797c-11.086 0-20.102 9.018-20.102 20.1v23.9c0 2.209-1.789 4-4 4s-4-1.791-4-4v-23.9c0-15.494 12.605-28.1 28.102-28.1h35.797c15.496 0 28.102 12.605 28.102 28.1v23.9c0 2.209-1.789 4-4 4z" fill="#4c241d"/></g><g><path d="m150 93.265v-.214c0-6.509-5.277-11.786-11.786-11.786h-13.248c-8.265 0-14.966 6.7-14.966 14.966v11.034c0 14.359 11.641 26 26 26 14.359 0 26-11.641 26-26v-4.379c0-5.314-4.308-9.621-9.621-9.621z" fill="#ffce56"/><path d="m136 137.265c-16.543 0-30-13.457-30-30v-11.035c0-10.457 8.508-18.965 18.965-18.965h13.25c7.418 0 13.656 5.143 15.34 12.051 6.961.598 12.445 6.455 12.445 13.57v4.379c0 16.543-13.457 30-30 30zm-11.035-52c-6.047 0-10.965 4.918-10.965 10.965v11.035c0 12.131 9.871 22 22 22s22-9.869 22-22v-4.379c0-3.1-2.523-5.621-5.621-5.621h-2.379c-2.211 0-4-1.791-4-4v-.215c0-4.293-3.492-7.785-7.785-7.785z" fill="#4c241d"/></g><g><path d="m106 189.265 4 4v16" fill="#9dc1e4"/><path d="m110 213.265c-2.211 0-4-1.791-4-4v-14.344l-2.828-2.828c-1.562-1.562-1.562-4.094 0-5.656s4.094-1.562 5.656 0l4 4c.75.75 1.172 1.768 1.172 2.828v16c0 2.209-1.789 4-4 4z" fill="#4c241d"/></g><g><path d="m166 189.265-4 4v16" fill="#9dc1e4"/><path d="m162 213.265c-2.211 0-4-1.791-4-4v-16c0-1.061.422-2.078 1.172-2.828l4-4c1.562-1.562 4.094-1.562 5.656 0s1.562 4.094 0 5.656l-2.828 2.828v14.344c0 2.209-1.789 4-4 4z" fill="#4c241d"/></g><g><path d="m90 265.265v-60h92v60" fill="#bf7e68"/><path d="m182 269.265c-2.211 0-4-1.791-4-4v-56h-84v56c0 2.209-1.789 4-4 4s-4-1.791-4-4v-60c0-2.209 1.789-4 4-4h92c2.211 0 4 1.791 4 4v60c0 2.209-1.789 4-4 4z" fill="#4c241d"/></g><g><circle cx="222" cy="97.265" fill="#c1dbdc" r="48"/><path d="m222 149.265c-28.672 0-52-23.326-52-52s23.328-52 52-52 52 23.326 52 52-23.328 52-52 52zm0-96c-24.262 0-44 19.738-44 44s19.738 44 44 44 44-19.738 44-44-19.738-44-44-44z" fill="#4c241d"/></g><g><path d="m74 265.265v-20c0-4.418 3.582-8 8-8 4.418 0 8 3.582 8 8v20" fill="#bf7e68"/><path d="m90 269.265c-2.211 0-4-1.791-4-4v-20c0-2.205-1.793-4-4-4s-4 1.795-4 4v20c0 2.209-1.789 4-4 4s-4-1.791-4-4v-20c0-6.617 5.383-12 12-12s12 5.383 12 12v20c0 2.209-1.789 4-4 4z" fill="#4c241d"/></g><g><path d="m182 265.265v-20c0-4.418 3.582-8 8-8 4.418 0 8 3.582 8 8v20" fill="#bf7e68"/><path d="m198 269.265c-2.211 0-4-1.791-4-4v-20c0-2.205-1.793-4-4-4s-4 1.795-4 4v20c0 2.209-1.789 4-4 4s-4-1.791-4-4v-20c0-6.617 5.383-12 12-12s12 5.383 12 12v20c0 2.209-1.789 4-4 4z" fill="#4c241d"/></g><g><path d="m211.089 124.861c.299 0 .591-.088.839-.254l4.712-1.948c.835 0 1.513-.677 1.513-1.513v-.278c0-.835.677-1.513 1.513-1.513h7.77c.401 0 7.351 4.876 7.519 5.55l.528 3.214c.168.673.773 1.146 1.467 1.146 0 0 4.686-2.202 5.259-2.202 0 0 2.534-1.392 2.804-1.863l4.958-11.894c.072-.358.011-.73-.17-1.047 0 0-7.468-8.692-7.533-9.278l-.353-3.175c-.057-.51-2.293-2.281-2.293-2.854l-3.683 1.936c-.407.678-3.951-.414-3.951-.414-.673-.337-.997-1.117-.759-1.831l.023-.068c.326-.979-.403-1.991-1.435-1.991h-3.573c-.573 0-1.097.324-1.353.836l-1.241 2.483c-.317.634-5.184.317-5.545.822l-4.688 6.563c-.143.201-7.673 4.033-7.673 4.033-.747.374-1.05 1.282-.676 2.029z" fill="#a9ba5a"/><path d="m236.949 133.265c-2.535 0-4.734-1.719-5.348-4.18l-.379-2.246c-1.207-.971-3.574-2.668-4.832-3.482h-4.75c-.738 1.676-2.207 2.869-3.973 3.207l-3.961 1.637c-2.188 1.18-5.254.57-6.27-1.711l-6.023-13.51c-1.277-2.568-.172-5.881 2.539-7.236 2.57-1.307 5.461-2.801 6.707-3.475l4.191-5.869c1.293-1.814 3.199-1.906 5.617-2.021.16-.008.32-.016.48-.021l.363-.727c.949-1.883 2.836-3.047 4.934-3.047h3.57c1.77 0 3.441.857 4.473 2.293.418.576.711 1.223.879 1.898l2.594-1.363c1.238-.654 2.73-.607 3.93.117.672.408 1.199.998 1.531 1.686.145.154.312.32.477.486 1.039 1.059 2.02 2.057 2.191 3.68l.25 2.215c1.105 1.453 4.113 5.055 6.695 8.057.168.195.316.408.441.633.664 1.164.879 2.523.609 3.83-.051.25-.129.494-.227.73l-4.957 11.895c-.062.154-.137.303-.219.449-.453.791-1.094 1.592-4.352 3.381-.363.199-.754.342-1.16.42-.691.244-2.727 1.146-4.324 1.896-.528.249-1.11.378-1.696.378zm-17.285-17.908h7.77c2.262 0 10.766 6.037 11.402 8.582l.012.082c.852-.357 1.453-.582 1.906-.723.277-.156.637-.365.953-.568l3.859-9.262c-7.086-8.287-7.137-8.768-7.273-10.064l-.129-1.145c-2.273 1.598-5.719.543-7.355.037-.211-.064-.418-.148-.617-.248-1.262-.635-2.184-1.711-2.664-2.959l-.301.602c-1.211 2.432-3.723 2.551-6.379 2.678-.148.008-.297.014-.445.02l-3.73 5.225c-.629.875-.707.986-7.02 4.207l3.539 7.938 1.254-.518c.738-2.316 2.796-3.884 5.218-3.884zm-9.941 5.914c-.004.002-.004.002-.004.004 0-.002 0-.002.004-.004zm-2.137-8.401c-.008.006-.02.012-.031.016.011-.004.023-.01.031-.016zm1.062-3.297.086.186c-.027-.063-.054-.125-.086-.186zm26.399-11.736c-.004.002-.004.006-.004.008 0-.002 0-.004.004-.008zm8.574-.893v.008c0-.002 0-.006 0-.008zm0-.007v.004s0-.002 0-.004zm-23.547-.829c-.004.002-.004.006-.004.008zm7.364-.732c-.004.01-.008.02-.012.029.004-.009.008-.019.012-.029z" fill="#4c241d"/></g><g><path d="m179.881 74.241 5.119 1.024 8 14h13l4-12-10-2-10-10v-3.705c-4.04 3.623-7.492 7.885-10.119 12.681z" fill="#a9ba5a"/><path d="m206 93.265h-13c-1.434 0-2.762-.77-3.473-2.016l-7.098-12.42-3.332-.666c-1.246-.25-2.301-1.078-2.84-2.23-.539-1.154-.496-2.494.117-3.611 2.789-5.1 6.477-9.721 10.953-13.74 1.18-1.049 2.859-1.32 4.301-.674 1.442.642 2.372 2.074 2.372 3.652v2.049l7.973 7.971 8.812 1.764c1.125.225 2.098.922 2.676 1.914.574.992.695 2.184.332 3.273l-4 12c-.543 1.632-2.07 2.734-3.793 2.734zm-10.68-8h7.797l1.656-4.967-5.559-1.111c-.773-.154-1.484-.535-2.043-1.094l-8.961-8.959c-.648.77-1.27 1.561-1.855 2.367.887.32 1.641.947 2.117 1.779z" fill="#4c241d"/></g><path d="m222 73.265c-1.023 0-2.047-.391-2.828-1.172-1.562-1.562-1.562-4.094 0-5.656l4-4c1.562-1.562 4.094-1.562 5.656 0s1.562 4.094 0 5.656l-4 4c-.781.781-1.805 1.172-2.828 1.172z" fill="#4c241d"/><path d="m234 85.265c-2.211 0-4-1.791-4-4v-4c0-2.209 1.789-4 4-4s4 1.791 4 4v4c0 2.209-1.789 4-4 4z" fill="#4c241d"/><path d="m222 165.265c-2.211 0-4-1.791-4-4v-16c0-2.209 1.789-4 4-4s4 1.791 4 4v16c0 2.209-1.789 4-4 4z" fill="#4c241d"/><g><path d="m70 153.265h28v12h-28z" fill="#6b4f5b"/><path d="m98 169.265h-28c-2.211 0-4-1.791-4-4v-12c0-2.209 1.789-4 4-4h28c2.211 0 4 1.791 4 4v12c0 2.209-1.789 4-4 4zm-24-8h20v-4h-20z" fill="#4c241d"/></g></g></svg>